<?xml version="1.0" standalone="no"?>
<!DOCTYPE svg PUBLIC "-//W3C//DTD SVG 20010904//EN"
 "http://www.w3.org/TR/2001/REC-SVG-20010904/DTD/svg10.dtd">
<svg version="1.0" xmlns="http://www.w3.org/2000/svg"
 width="500.000000pt" height="500.000000pt" viewBox="0 0 500.000000 500.000000"
 preserveAspectRatio="xMidYMid meet">

<g transform="translate(0.000000,500.000000) scale(0.100000,-0.100000)"
fill="#000000" stroke="none">
<path d="M1004 1952 c-340 -598 -675 -1187 -745 -1309 l-127 -223 649 0 649 0
-87 117 c-47 65 -135 183 -195 262 l-108 144 23 41 c13 23 144 265 291 539
148 273 271 495 275 492 4 -2 201 -344 437 -760 235 -415 431 -755 434 -755 3
0 198 340 434 755 236 416 432 758 436 760 4 3 128 -219 275 -493 147 -273
278 -515 291 -537 l23 -41 -195 -259 -196 -260 643 -3 c353 -1 644 0 647 2 6
7 -1480 2616 -1487 2611 -4 -2 -200 -344 -437 -759 -236 -416 -431 -755 -434
-755 -3 0 -198 340 -435 755 -236 416 -432 757 -436 760 -4 2 -285 -486 -625
-1084z"/>
</g>
</svg>
